<?xml version="1.0" standalone="no"?>
<!DOCTYPE svg PUBLIC "-//W3C//DTD SVG 20010904//EN"
 "http://www.w3.org/TR/2001/REC-SVG-20010904/DTD/svg10.dtd">
<svg version="1.0" xmlns="http://www.w3.org/2000/svg"
 width="1024.000000pt" height="1024.000000pt" viewBox="0 0 1024.000000 1024.000000"
 preserveAspectRatio="xMidYMid meet">

<g transform="translate(0.000000,1024.000000) scale(0.100000,-0.100000)"
fill="#000000" stroke="none">
<path d="M0 5120 l0 -5120 5120 0 5120 0 0 5120 0 5120 -5120 0 -5120 0 0
-5120z m5037 3865 c105 -31 191 -174 164 -274 -15 -58 -54 -107 -114 -146
l-46 -30 0 -197 c-1 -152 2 -198 12 -198 6 0 84 -7 172 -15 415 -40 795 -162
1142 -366 278 -165 576 -425 785 -685 128 -160 190 -260 303 -489 125 -254
181 -408 251 -685 17 -66 50 -327 59 -462 4 -54 8 -98 8 -99 1 0 169 -2 372
-5 204 -2 384 -6 401 -9 29 -5 32 -3 43 34 36 120 176 179 293 123 54 -27 112
-86 127 -131 57 -171 -105 -365 -268 -321 -48 13 -123 76 -140 118 l-11 27
-123 -3 c-67 -1 -191 -6 -276 -11 -85 -4 -215 -4 -289 1 -74 4 -136 7 -138 6
-1 -2 -7 -57 -13 -123 -35 -369 -117 -657 -282 -987 -162 -324 -316 -535 -570
-784 -479 -467 -1091 -743 -1759 -792 l-95 -7 -3 -258 c-2 -238 -1 -258 15
-264 37 -14 91 -65 110 -106 49 -100 35 -199 -38 -276 -74 -77 -164 -100 -260
-66 -181 64 -220 269 -78 414 21 23 48 41 59 41 20 0 20 5 18 257 l-3 258
-105 7 c-396 27 -701 112 -1040 291 -306 161 -528 322 -722 523 -212 220 -365
430 -491 674 -190 367 -297 713 -328 1060 -6 69 -14 127 -17 130 -4 4 -79 3
-167 -1 -88 -3 -272 -3 -410 1 -248 8 -250 7 -265 -14 -38 -56 -88 -95 -140
-110 -73 -22 -97 -20 -158 10 -91 45 -149 148 -138 241 10 88 35 131 107 186
98 74 264 26 328 -93 l24 -45 412 0 412 0 6 145 c21 489 212 1042 499 1445 85
119 237 306 287 354 305 289 491 427 749 555 323 161 639 257 943 286 63 6
138 13 167 16 l52 5 0 197 0 197 -46 30 c-138 90 -150 253 -27 365 76 71 139
85 240 55z m-2962 -439 c88 -37 155 -116 180 -212 19 -75 19 -138 -1 -194
l-16 -45 98 -95 c55 -53 139 -134 188 -180 48 -47 127 -130 175 -185 47 -55
122 -139 167 -186 102 -108 111 -136 56 -185 -55 -50 -71 -46 -145 44 -36 42
-200 212 -364 378 l-298 301 -44 -20 c-24 -10 -70 -22 -101 -24 -108 -10 -217
64 -280 189 -103 207 63 453 292 433 32 -2 74 -11 93 -19z m4062 -4 c11 -6 25
-18 33 -26 11 -14 93 -16 731 -16 l719 0 -7 -77 c-3 -43 -10 -81 -15 -84 -19
-12 -340 -19 -866 -19 l-543 1 -30 -26 c-30 -25 -55 -30 -114 -26 -132 11
-172 192 -58 266 51 34 95 36 150 7z m1974 -13 c103 -55 166 -148 176 -258 13
-148 -114 -300 -273 -326 -37 -6 -93 7 -164 39 -12 5 -109 -89 -359 -346 -189
-194 -349 -354 -357 -356 -12 -3 -46 30 -96 93 l-19 25 163 175 c90 96 250
255 356 352 105 97 192 177 192 178 0 1 -8 17 -17 36 -13 23 -18 57 -18 109 0
66 4 84 34 144 41 84 104 149 157 164 66 19 157 7 225 -29z m-4173 1 c37 -23
72 -75 72 -108 0 -37 -25 -84 -65 -124 -60 -60 -127 -62 -186 -7 l-31 29 -688
0 c-417 0 -691 4 -695 9 -3 6 -11 43 -18 85 -13 75 -13 75 10 81 13 3 335 6
716 6 l692 0 30 25 c39 31 115 33 163 4z m-2113 -1887 c0 -899 -3 -1195 -12
-1204 -8 -8 -32 -9 -76 -5 -56 6 -66 11 -71 29 -3 12 -6 548 -7 1191 -2 988 0
1169 12 1177 8 5 46 8 84 7 l70 -3 0 -1192z m6443 1184 c13 -15 17 -1765 6
-2154 l-7 -233 -79 0 -78 0 0 1194 0 1195 43 4 c87 8 105 7 115 -6z m-6445
-2854 c9 -81 1 -2303 -9 -2312 -5 -5 -38 -11 -72 -13 -58 -4 -65 -2 -72 17 -8
20 -13 960 -11 1928 l1 427 79 0 78 0 6 -47z m6453 -1051 c-3 -598 -5 -1122
-5 -1166 -1 -65 -4 -77 -16 -72 -8 3 -14 2 -14 -2 7 -44 -13 -51 -85 -31 -29
8 -35 13 -25 19 8 6 18 5 23 0 13 -13 59 -13 51 0 -3 6 -15 10 -26 10 -21 0
-27 19 -6 21 10 0 10 2 0 6 -17 6 -17 70 -1 75 8 3 4 9 -10 17 -21 11 -31 41
-13 41 5 0 9 20 9 45 0 28 -4 45 -11 45 -7 0 -6 4 3 10 10 6 11 10 2 10 -6 0
-11 3 -11 8 1 4 0 16 -1 27 -2 17 -3 17 -10 -5 -6 -19 -8 -9 -9 37 -1 34 3 63
7 65 5 2 12 22 16 45 5 35 4 41 -9 37 -11 -5 -15 3 -15 32 0 22 -3 439 -6 929
l-5 890 85 -3 86 -3 -4 -1087z m-6017 -112 c60 -17 81 -45 81 -111 0 -51 -4
-63 -31 -94 -50 -57 -137 -68 -199 -24 -24 16 -70 93 -70 116 0 17 29 69 49
87 36 33 108 44 170 26z m591 -560 c35 -28 110 -119 110 -134 0 -3 -19 -18
-42 -33 -75 -46 -154 -123 -340 -326 -177 -193 -331 -347 -348 -347 -5 0 1
-21 13 -47 48 -107 17 -254 -73 -343 -117 -118 -318 -110 -429 16 -63 71 -76
107 -76 204 0 73 4 93 29 143 68 140 251 204 379 134 l38 -21 33 34 c408 426
525 556 562 622 44 77 82 128 96 128 5 0 27 -14 48 -30z m4320 -52 c0 -5 91
-103 203 -217 186 -191 362 -376 434 -460 l30 -34 34 24 c27 19 49 25 112 28
98 4 151 -14 211 -75 60 -59 88 -121 94 -205 4 -63 2 -75 -29 -137 -37 -76
-92 -133 -159 -164 -60 -29 -179 -31 -230 -4 -73 38 -144 126 -121 149 16 16
13 54 -4 61 -11 4 -15 -1 -15 -19 0 -14 5 -25 11 -25 5 0 7 -5 3 -11 -9 -15
-19 -1 -38 55 -20 63 -20 132 0 192 l16 47 -93 87 c-65 62 -90 91 -84 101 5 8
4 11 0 6 -14 -12 -368 340 -358 356 3 6 1 7 -5 3 -14 -8 -44 22 -36 36 5 7 2
8 -6 3 -8 -5 -18 -2 -24 6 -6 8 -39 40 -73 71 l-61 57 24 33 c13 18 41 47 61
65 l37 31 33 -25 c18 -14 33 -30 33 -35z m957 -480 c-2 -13 -4 -3 -4 22 0 25
2 35 4 23 2 -13 2 -33 0 -45z m-4189 -528 c68 -49 80 -100 40 -160 -34 -50
-71 -72 -127 -78 -44 -4 -56 -1 -87 23 l-36 27 -336 -2 c-185 -2 -498 -2 -694
-1 l-358 1 0 84 0 84 113 7 c61 4 376 5 699 3 l588 -5 22 24 c18 19 32 23 78
23 47 0 64 -5 98 -30z m2212 13 c14 -9 27 -20 30 -24 3 -4 96 -9 208 -10 111
-2 202 -7 202 -11 0 -5 -6 -8 -12 -7 -7 1 -59 1 -115 0 -84 -1 -103 -4 -103
-16 0 -12 19 -15 103 -16 56 -1 110 -1 120 0 9 1 17 -3 17 -8 0 -7 24 -11 60
-11 33 0 60 4 60 10 0 6 9 10 20 10 11 0 20 -4 20 -10 0 -5 9 -10 20 -10 11 0
20 5 20 10 0 22 29 8 38 -19 10 -29 12 -29 89 -33 56 -3 86 0 106 11 15 9 27
19 27 23 0 4 9 8 20 8 11 0 20 5 20 10 0 6 5 10 10 10 6 0 10 -9 10 -20 0 -18
7 -20 80 -20 73 0 80 -2 80 -20 0 -13 -7 -20 -19 -20 -11 0 -23 -4 -26 -10 -4
-6 21 -10 67 -11 55 -1 66 -3 43 -9 -16 -4 -282 -8 -589 -9 -556 -1 -560 -1
-582 -22 -46 -43 -144 -39 -196 8 -47 43 -62 118 -32 161 44 64 150 92 204 55z
m913 -40 c-7 -2 -19 -2 -25 0 -7 3 -2 5 12 5 14 0 19 -2 13 -5z m110 0 c-7 -2
-21 -2 -30 0 -10 3 -4 5 12 5 17 0 24 -2 18 -5z m115 0 c-15 -2 -42 -2 -60 0
-18 2 -6 4 27 4 33 0 48 -2 33 -4z m65 0 c-7 -2 -19 -2 -25 0 -7 3 -2 5 12 5
14 0 19 -2 13 -5z m244 -40 c-3 -10 -5 -4 -5 12 0 17 2 24 5 18 2 -7 2 -21 0
-30z m10 -95 c-2 -13 -4 -3 -4 22 0 25 2 35 4 23 2 -13 2 -33 0 -45z"/>
<path d="M4904 8835 c-12 -8 -27 -28 -34 -45 -23 -55 22 -120 83 -120 58 0
107 46 107 101 0 11 -13 34 -29 50 -33 33 -91 40 -127 14z"/>
<path d="M4760 7863 c-173 -13 -442 -72 -632 -139 -133 -47 -365 -158 -487
-234 -208 -128 -453 -348 -615 -550 -115 -143 -148 -189 -225 -317 -274 -457
-385 -877 -368 -1393 12 -348 83 -660 219 -963 176 -392 507 -799 857 -1055
236 -173 575 -336 835 -401 254 -64 347 -76 621 -76 280 0 383 12 616 70 182
45 303 91 494 189 270 138 422 248 649 466 143 138 226 238 351 425 203 302
321 596 395 977 29 149 40 272 40 446 0 251 -32 459 -111 722 -80 266 -177
471 -331 705 -102 155 -140 199 -306 368 -317 321 -714 562 -1102 667 -310 84
-611 115 -900 93z m517 -218 c196 -25 408 -85 565 -161 88 -42 90 -53 3 -14
-48 22 -74 26 -98 15 -11 -4 -23 -3 -30 4 -6 6 -28 11 -49 11 -27 0 -38 4 -38
15 0 8 -3 15 -7 16 -5 0 -19 3 -33 6 -14 3 -89 7 -167 10 -124 3 -143 2 -143
-11 0 -12 -10 -16 -35 -16 -19 0 -35 -4 -35 -8 0 -11 5 -10 -158 -12 -157 -1
-427 -24 -462 -38 -14 -6 -79 -23 -145 -38 -66 -15 -121 -32 -123 -36 -2 -4
-17 -8 -33 -8 -16 0 -29 -4 -29 -10 0 -5 -6 -10 -13 -10 -7 0 -32 -9 -55 -20
-22 -11 -49 -21 -59 -23 -10 -2 -28 -8 -40 -15 -12 -7 -30 -9 -40 -6 -14 5
-15 4 -4 -4 11 -8 3 -16 -38 -39 -29 -15 -82 -47 -118 -70 -68 -44 -78 -49
-69 -35 3 5 -1 9 -9 9 -11 0 -12 -4 -5 -13 8 -9 -10 -26 -67 -68 -43 -30 -122
-92 -177 -136 -54 -45 -101 -79 -103 -76 -3 3 5 15 18 26 16 15 20 23 12 26
-16 7 -18 124 -3 124 17 0 11 21 -12 40 l-22 18 34 21 c19 11 29 21 22 21 -7
0 3 14 21 30 19 17 42 30 51 30 10 0 15 4 12 8 -3 5 23 27 57 49 43 28 64 38
69 30 6 -9 8 -9 8 1 0 6 7 12 16 12 8 0 12 5 9 10 -3 6 1 10 9 10 9 0 16 3 16
8 0 6 117 76 130 77 3 0 16 8 30 17 43 29 193 89 207 83 8 -2 11 0 8 5 -6 9
14 14 43 11 6 -1 12 2 12 7 0 8 61 34 90 37 8 1 22 5 30 8 18 7 111 34 125 36
6 1 26 6 45 11 180 46 519 57 777 25z m483 -195 c0 -5 -2 -10 -4 -10 -3 0 -8
5 -11 10 -3 6 -1 10 4 10 6 0 11 -4 11 -10z m1 -59 c-6 -4 12 -15 40 -25 66
-24 56 -33 -13 -11 -69 22 -88 40 -47 41 17 1 26 -2 20 -5z m482 -566 c101
-17 228 -63 312 -110 71 -41 95 -61 119 -98 46 -69 -41 -191 -120 -168 -16 5
-71 29 -123 55 -114 58 -219 86 -320 86 -209 0 -373 -61 -565 -210 -112 -87
-118 -90 -168 -90 -39 0 -52 5 -82 34 -31 29 -36 40 -36 78 0 59 35 108 130
178 149 111 434 232 595 253 70 9 178 6 258 -8z m-2248 -426 c108 -37 176 -80
260 -164 125 -125 187 -272 186 -443 0 -148 -29 -244 -112 -367 -76 -114 -162
-182 -299 -234 -200 -77 -370 -58 -564 63 -332 207 -386 707 -107 983 168 166
427 232 636 162z m2175 -414 c178 -17 420 -118 530 -224 53 -50 60 -61 60 -96
0 -70 -65 -136 -135 -138 -24 -1 -45 9 -81 39 -120 100 -211 147 -325 170 -95
19 -219 15 -329 -11 -99 -24 -236 -94 -310 -158 -91 -80 -140 -79 -200 5 -44
60 -42 115 6 167 69 77 199 150 369 207 152 51 219 57 415 39z m215 -806 c122
-22 254 -103 327 -201 53 -69 106 -181 114 -239 15 -109 -74 -176 -184 -138
-39 13 -59 45 -86 133 -14 44 -28 72 -37 74 -10 2 -35 -23 -66 -65 -124 -170
-270 -310 -464 -445 -280 -195 -703 -334 -1079 -355 -186 -10 -484 23 -685 77
-244 65 -296 91 -316 160 -15 51 1 92 48 121 46 29 118 23 283 -25 389 -111
799 -109 1157 5 207 65 349 139 525 271 132 99 319 277 357 338 l31 50 -25 0
c-14 0 -53 -9 -87 -21 -92 -31 -145 -13 -168 57 -15 45 0 91 43 131 75 72 182
96 312 72z"/>
<path d="M5493 7563 c9 -2 23 -2 30 0 6 3 -1 5 -18 5 -16 0 -22 -2 -12 -5z"/>
<path d="M3700 6155 c-83 -24 -136 -60 -186 -127 -60 -82 -77 -146 -72 -267 3
-73 9 -107 26 -141 36 -75 106 -146 179 -182 60 -29 74 -32 157 -32 109 0 181
25 247 83 55 48 117 162 130 239 27 155 -66 339 -207 408 -68 33 -191 42 -274
19z m132 -65 c72 -21 131 -117 113 -187 -15 -64 -99 -112 -172 -98 -24 4 -42
18 -63 47 -37 50 -41 118 -11 177 26 50 36 58 91 70 3 0 21 -4 42 -9z"/>
<path d="M8753 5360 c-43 -17 -57 -85 -28 -140 29 -57 84 -61 138 -12 46 43
35 117 -23 147 -32 17 -54 18 -87 5z"/>
<path d="M1069 5345 c-79 -43 -43 -169 48 -169 27 0 42 7 64 32 39 44 39 85
-2 123 -34 32 -69 36 -110 14z"/>
<path d="M4908 1819 c-28 -11 -58 -62 -58 -99 0 -32 62 -90 97 -90 93 0 142
113 75 173 -24 22 -78 30 -114 16z"/>
<path d="M1915 8384 c-79 -41 -107 -100 -80 -169 20 -54 75 -105 114 -105 43
0 112 41 133 80 23 41 20 106 -7 146 -16 25 -85 63 -115 64 -8 0 -28 -7 -45
-16z"/>
<path d="M7916 8375 c-73 -56 -73 -167 0 -236 18 -17 36 -23 75 -23 46 -1 54
2 84 36 88 96 32 239 -94 238 -25 0 -55 -7 -65 -15z"/>
<path d="M1905 2371 c-74 -45 -94 -115 -55 -196 35 -72 102 -94 176 -59 111
53 103 211 -13 260 -44 19 -72 17 -108 -5z"/>
<path d="M7018 3110 c10 -12 18 -16 21 -9 2 6 -3 15 -10 20 -24 15 -29 10 -11
-11z"/>
<path d="M7890 2390 c-13 -8 -12 -10 4 -10 20 0 20 0 0 -15 -19 -15 -19 -15 1
-8 19 6 19 5 -2 -18 -53 -59 -50 -144 8 -205 l29 -30 -20 -24 c-22 -26 -25
-37 -10 -42 6 -2 12 -21 13 -43 l3 -40 64 1 c100 2 100 2 100 24 0 11 5 20 11
20 5 0 7 -4 4 -10 -3 -5 -1 -10 4 -10 6 0 11 5 11 10 0 6 8 10 19 10 13 0 20
10 25 31 9 48 8 49 -28 49 -37 0 -56 14 -31 24 19 7 19 23 0 23 -8 0 -12 -4
-9 -9 3 -4 -2 -8 -11 -8 -8 0 -18 -7 -21 -15 -7 -17 -34 -21 -34 -5 0 6 6 10
13 10 7 0 26 13 42 30 15 16 31 27 35 25 3 -2 12 0 20 6 8 5 10 9 5 9 -6 0
-10 30 -10 69 0 60 -3 73 -25 96 -14 15 -44 36 -67 46 -39 16 -46 17 -78 3
-24 -10 -34 -11 -33 -3 4 16 -14 21 -32 9z m70 -294 c0 -2 -7 -7 -16 -10 -8
-3 -12 -2 -9 4 6 10 25 14 25 6z m43 -13 c-7 -2 -19 -2 -25 0 -7 3 -2 5 12 5
14 0 19 -2 13 -5z"/>
<path d="M7847 2173 c-10 -10 -8 -53 2 -53 19 0 29 25 17 42 -7 10 -16 15 -19
11z"/>
<path d="M7773 2066 c9 -7 17 -16 17 -19 0 -3 11 -17 25 -31 14 -14 25 -20 25
-12 0 7 -9 21 -20 31 -11 10 -20 24 -20 32 0 7 -10 13 -22 13 -21 -1 -22 -2
-5 -14z"/>
<path d="M7850 1991 c0 -10 30 -24 37 -17 3 2 -5 9 -16 16 -12 6 -21 7 -21 1z"/>
<path d="M6258 2023 c12 -2 32 -2 45 0 12 2 2 4 -23 4 -25 0 -35 -2 -22 -4z"/>
<path d="M6398 2023 c23 -2 61 -2 85 0 23 2 4 4 -43 4 -47 0 -66 -2 -42 -4z"/>
<path d="M7008 2023 c12 -2 30 -2 40 0 9 3 -1 5 -23 4 -22 0 -30 -2 -17 -4z"/>
<path d="M7178 2023 c7 -3 16 -2 19 1 4 3 -2 6 -13 5 -11 0 -14 -3 -6 -6z"/>
</g>
</svg>
